<?xml version="1.0" encoding="utf-8"?>
<!-- Generator: Adobe Illustrator 16.0.0, SVG Export Plug-In . SVG Version: 6.00 Build 0)  -->
<!DOCTYPE svg PUBLIC "-//W3C//DTD SVG 1.1//EN" "http://www.w3.org/Graphics/SVG/1.1/DTD/svg11.dtd">
<svg version="1.1" id="Calque_1" xmlns="http://www.w3.org/2000/svg" xmlns:xlink="http://www.w3.org/1999/xlink" x="0px" y="0px"
	 width="103.781px" height="97.695px" viewBox="0 0 103.781 97.695" enable-background="new 0 0 103.781 97.695"
	 xml:space="preserve">
<g>
	<path fill-rule="evenodd" clip-rule="evenodd" fill="#24A8E0" d="M96.092,97.695H7.687C3.439,97.695,0,94.196,0,89.88V42.985
		c0,0,20.068,10.492,38.437,14.79v4.751c0,2.158,1.723,3.904,3.845,3.904H61.5c2.128,0,3.845-1.747,3.845-3.904v-4.751
		c18.372-4.298,38.437-14.79,38.437-14.79V89.88C103.781,94.196,100.342,97.695,96.092,97.695z M57.658,50.8
		c2.119,0,3.842,1.753,3.842,3.911v3.904c0,2.158-1.723,3.911-3.842,3.911H46.127c-2.125,0-3.846-1.753-3.846-3.911V54.71
		c0-2.158,1.721-3.911,3.846-3.911H57.658z M65.345,50.8c0-2.158-1.717-3.904-3.845-3.904H42.281c-2.122,0-3.845,1.747-3.845,3.904
		v3.499C20.068,49.876,0,39.081,0,39.081V23.445c0-4.316,3.439-7.815,7.687-7.815H30.75V7.815C30.75,3.499,34.192,0,38.437,0h26.908
		c4.244,0,7.69,3.499,7.69,7.815v7.815h23.057c4.25,0,7.689,3.499,7.689,7.815v15.636c0,0-20.064,10.795-38.437,15.218V50.8z
		 M65.345,11.726c0-2.158-1.717-3.911-3.845-3.911H42.281c-2.122,0-3.845,1.752-3.845,3.911c0,2.158,0,3.904,0,3.904h26.908
		C65.345,15.63,65.345,13.883,65.345,11.726z"/>
</g>
</svg>
