<?xml version="1.0" encoding="utf-8"?>
<!-- Generator: Adobe Illustrator 16.0.0, SVG Export Plug-In . SVG Version: 6.00 Build 0)  -->
<!DOCTYPE svg PUBLIC "-//W3C//DTD SVG 1.1//EN" "http://www.w3.org/Graphics/SVG/1.1/DTD/svg11.dtd">
<svg version="1.1" id="Calque_1" xmlns="http://www.w3.org/2000/svg" xmlns:xlink="http://www.w3.org/1999/xlink" x="0px" y="0px"
	 width="190.68px" height="104.007px" viewBox="0 0 190.68 104.007" enable-background="new 0 0 190.68 104.007"
	 xml:space="preserve">
<g>
	<path fill-rule="evenodd" clip-rule="evenodd" fill="#E73850" d="M0,104.007V0h190.68v104.007H0z M70.724,45.214
		c0-10.864-7.495-17.081-20.517-17.081H29.541v50.019h8.588V63.078h12.078c0.8,0,1.6,0,2.327-0.076l9.315,15.15h9.75L60.173,61.436
		C66.94,58.863,70.724,53.217,70.724,45.214z M98.258,35.709c3.859,0,9.387,1.354,14.922,4.643l3.563-7.432
		c-4.731-3.072-11.207-5.146-17.834-5.146c-11.054,0-18.549,5.361-18.549,13.936c0,17.796,27.504,11.579,27.504,22.73
		c0,3.86-3.572,6.069-9.53,6.069c-5.46,0-12.011-2.564-17.25-7.288l-3.707,7.288c5.238,4.714,12.806,7.931,20.805,7.931
		c11.206,0,19.213-5.502,19.213-14.432c0.068-18.012-27.432-12.15-27.432-23.086C89.963,37.567,93.238,35.709,98.258,35.709z
		 M151.691,28.134h-8.803l-22.48,50.019h8.946l4.875-11.291h25.688l4.876,11.291h9.166L151.691,28.134z M147.036,37.136
		l9.606,22.227H137.43L147.036,37.136z M50.207,55.502H38.129V35.709h12.078c7.858,0,12.37,3.145,12.37,9.717
		C62.577,52.219,58.065,55.502,50.207,55.502z"/>
</g>
</svg>
