<?xml version="1.0" encoding="utf-8"?>
<!-- Generator: Adobe Illustrator 16.0.0, SVG Export Plug-In . SVG Version: 6.00 Build 0)  -->
<!DOCTYPE svg PUBLIC "-//W3C//DTD SVG 1.1//EN" "http://www.w3.org/Graphics/SVG/1.1/DTD/svg11.dtd">
<svg version="1.1" id="Calque_1" xmlns="http://www.w3.org/2000/svg" xmlns:xlink="http://www.w3.org/1999/xlink" x="0px" y="0px"
	 width="88.889px" height="88.889px" viewBox="0 0 88.889 88.889" enable-background="new 0 0 88.889 88.889" xml:space="preserve">
<g>
	<path fill-rule="evenodd" clip-rule="evenodd" fill="#E73850" d="M44.443,88.889C19.898,88.889,0,68.993,0,44.446
		C0,19.898,19.898,0,44.443,0s44.446,19.898,44.446,44.446C88.889,68.993,68.988,88.889,44.443,88.889z M49.57,23.506
		c0-2.833-2.294-5.13-5.127-5.13s-5.127,2.297-5.127,5.13v23.929c0,2.833,2.294,5.13,5.127,5.13s5.127-2.297,5.127-5.13V23.506z
		 M44.443,59.399c-2.833,0-5.127,2.297-5.127,5.127c0,2.835,2.294,5.127,5.127,5.127s5.127-2.292,5.127-5.127
		C49.57,61.696,47.276,59.399,44.443,59.399z"/>
</g>
</svg>
