<?xml version="1.0" encoding="UTF-8" standalone="no"?>
<!-- Created with Inkscape (http://www.inkscape.org/) -->

<svg
   xmlns:dc="http://purl.org/dc/elements/1.1/"
   xmlns:cc="http://creativecommons.org/ns#"
   xmlns:rdf="http://www.w3.org/1999/02/22-rdf-syntax-ns#"
   xmlns:svg="http://www.w3.org/2000/svg"
   xmlns="http://www.w3.org/2000/svg"
   xmlns:sodipodi="http://sodipodi.sourceforge.net/DTD/sodipodi-0.dtd"
   xmlns:inkscape="http://www.inkscape.org/namespaces/inkscape"
   width="25mm"
   height="31mm"
   viewBox="0 0 25 31"
   version="1.1"
   id="svg8"
   inkscape:version="0.92.2 (5c3e80d, 2017-08-06)"
   sodipodi:docname="picto-dashboard.svg">
  <defs
     id="defs2" />
  <sodipodi:namedview
     id="base"
     pagecolor="#ffffff"
     bordercolor="#666666"
     borderopacity="1.0"
     inkscape:pageopacity="0.0"
     inkscape:pageshadow="2"
     inkscape:zoom="3.959798"
     inkscape:cx="53.311346"
     inkscape:cy="58.716098"
     inkscape:document-units="mm"
     inkscape:current-layer="layer1"
     showgrid="false"
     inkscape:window-width="1359"
     inkscape:window-height="689"
     inkscape:window-x="434"
     inkscape:window-y="166"
     inkscape:window-maximized="0"
     width="137mm" />
  <metadata
     id="metadata5">
    <rdf:RDF>
      <cc:Work
         rdf:about="">
        <dc:format>image/svg+xml</dc:format>
        <dc:type
           rdf:resource="http://purl.org/dc/dcmitype/StillImage" />
        <dc:title></dc:title>
      </cc:Work>
    </rdf:RDF>
  </metadata>
  <g
     inkscape:label="Calque 1"
     inkscape:groupmode="layer"
     id="layer1"
     transform="translate(0,-266)">
    <g
       id="clipboard"
       transform="matrix(0.26458333,0,0,0.26458333,1.9111203,266.15412)"
       style="fill:#ffffff">
      <path
         id="path3792"
         d="m 80.003,108.69 c 0,4.03 -3.474,7.298 -7.479,7.298 H 7.252 C 3.247,115.988 0,112.72 0,108.69 V 17.244 C 0,13.214 3.247,9.947 7.252,9.947 H 25.61 v 7.297 H 10.878 c -2.002,0 -3.626,1.634 -3.626,3.649 v 84.149 c 0,2.015 1.624,3.648 3.626,3.648 h 58.247 c 2.002,0 3.626,-1.634 3.626,-3.648 V 20.893 c 0,-2.015 -1.624,-3.649 -3.626,-3.649 H 54.62 V 9.947 h 17.903 c 4.006,0 7.479,3.267 7.479,7.297 V 108.69 Z M 23.651,45.643 h 42.604 v 3.368 H 23.651 Z m 0,13.432 h 42.604 v 3.367 H 23.651 Z M 57.872,19.892 c 2.003,0 3.627,1.633 3.627,3.648 0,2.015 0,5.298 0,5.298 H 18.505 c 0,0 0,-3.283 0,-5.298 0,-2.015 1.623,-3.648 3.626,-3.648 l 6.879,1 c 0,0 0.043,-5.656 0.043,-11.586 C 29.053,3.149 33.769,0 39.888,0 c 6.119,0 11.228,4.412 11.228,10.342 0,6.385 -0.122,9.55 -0.122,9.55 z M 39.888,8.947 c -2.003,0 -3.626,2.633 -3.626,4.648 0,2.015 1.624,2.648 3.626,2.648 2.002,0 3.625,-1.633 3.625,-3.648 0.001,-2.015 -1.622,-3.648 -3.625,-3.648 z"
         inkscape:connector-curvature="0"
         style="clip-rule:evenodd;fill:#ffffff;fill-rule:evenodd" />
      <path
         id="path3794"
         d="m 23.651,72.644 h 42.604 v 3.367 H 23.651 Z m 0,13.431 h 42.604 v 3.367 H 23.651 Z"
         inkscape:connector-curvature="0"
         style="clip-rule:evenodd;fill:#ffffff;fill-rule:evenodd" />
      <path
         id="path3796"
         d="m 13.001,43.004 h 7 v 7 h -7 z"
         inkscape:connector-curvature="0"
         style="clip-rule:evenodd;fill:#ffffff;fill-rule:evenodd" />
      <path
         id="path3798"
         d="m 13.001,56.004 h 7 v 7 h -7 z"
         inkscape:connector-curvature="0"
         style="clip-rule:evenodd;fill:#ffffff;fill-rule:evenodd" />
      <path
         id="path3800"
         d="m 13.001,70.004 h 7 v 7 h -7 z"
         inkscape:connector-curvature="0"
         style="clip-rule:evenodd;fill:#ffffff;fill-rule:evenodd" />
      <path
         id="path3802"
         d="m 13.001,83.004 h 7 v 7 h -7 z"
         inkscape:connector-curvature="0"
         style="clip-rule:evenodd;fill:#ffffff;fill-rule:evenodd" />
    </g>
  </g>
</svg>
