<?xml version="1.0" encoding="UTF-8" standalone="no"?>
<!-- Created with Inkscape (http://www.inkscape.org/) -->

<svg
   xmlns:dc="http://purl.org/dc/elements/1.1/"
   xmlns:cc="http://creativecommons.org/ns#"
   xmlns:rdf="http://www.w3.org/1999/02/22-rdf-syntax-ns#"
   xmlns:svg="http://www.w3.org/2000/svg"
   xmlns="http://www.w3.org/2000/svg"
   xmlns:sodipodi="http://sodipodi.sourceforge.net/DTD/sodipodi-0.dtd"
   xmlns:inkscape="http://www.inkscape.org/namespaces/inkscape"
   width="25mm"
   height="31mm"
   viewBox="0 0 25 31"
   version="1.1"
   id="svg8"
   inkscape:version="0.92.2 (5c3e80d, 2017-08-06)"
   sodipodi:docname="picto-briefcase.svg">
  <defs
     id="defs2" />
  <sodipodi:namedview
     id="base"
     pagecolor="#ffffff"
     bordercolor="#666666"
     borderopacity="1.0"
     inkscape:pageopacity="0.0"
     inkscape:pageshadow="2"
     inkscape:zoom="3.959798"
     inkscape:cx="53.311346"
     inkscape:cy="57.381184"
     inkscape:document-units="mm"
     inkscape:current-layer="layer1"
     showgrid="false"
     inkscape:window-width="1359"
     inkscape:window-height="689"
     inkscape:window-x="434"
     inkscape:window-y="166"
     inkscape:window-maximized="0"
     width="137mm" />
  <metadata
     id="metadata5">
    <rdf:RDF>
      <cc:Work
         rdf:about="">
        <dc:format>image/svg+xml</dc:format>
        <dc:type
           rdf:resource="http://purl.org/dc/dcmitype/StillImage" />
        <dc:title></dc:title>
      </cc:Work>
    </rdf:RDF>
  </metadata>
  <g
     inkscape:label="Calque 1"
     inkscape:groupmode="layer"
     id="layer1"
     transform="translate(0,-266)">
    <g
       id="brief_case"
       transform="matrix(0.26458333,0,0,0.26458333,0.58860053,271.24241)"
       style="fill:#ffffff">
      <path
         id="path3853"
         d="M 84.697,75 H 5.303 C 1.621,75 0,73.384 0,69.709 V 33.873 c 0,0 17.404,8.933 33.333,12.591 v 5.409 H 56.666 V 46.464 C 72.596,42.806 90,33.873 90,33.873 V 69.709 C 90,73.384 88.379,75 84.697,75 Z M 56.666,39.164 H 33.333 v 4.343 C 17.404,39.741 0,30.545 0,30.545 V 18.6 C 0,14.925 1.621,13.309 5.303,13.309 H 26.666 V 6.654 C 26.667,2.979 29.652,0 33.333,0 h 23.333 c 3.682,0 6.668,2.979 6.668,6.654 v 6.655 h 21.363 c 3.682,0 5.303,1.616 5.303,5.291 v 11.946 c 0,0 -17.404,9.196 -33.334,12.961 z m 0,-29.183 C 56.666,8.144 55.174,5.29 53.334,5.29 H 36.667 c -1.841,0 -3.333,2.854 -3.333,4.691 0,1.838 0,3.328 0,3.328 h 23.333 c -0.001,0 -0.001,-1.49 -0.001,-3.328 z"
         inkscape:connector-curvature="0"
         style="clip-rule:evenodd;fill:#ffffff;fill-rule:evenodd" />
      <path
         id="path3855"
         d="m 53.184,42.273 v 5.454 H 36.819 v -5.454"
         inkscape:connector-curvature="0"
         style="clip-rule:evenodd;fill:#ffffff;fill-rule:evenodd" />
    </g>
  </g>
</svg>
